<svg width="200" height="199" viewBox="0 0 200 199" fill="none" xmlns="http://www.w3.org/2000/svg">
    <path d="M194.74 109.021L184.436 108.384L184.485 107.589L194.053 108.181L194.41 102.396L184.843 101.805L184.891 101.025L195.194 101.662L194.74 109.021Z" fill="white"/>
    <path d="M183.653 120.693C182.851 119.474 182.6 118.137 182.9 116.683C183.201 115.229 183.961 114.101 185.181 113.299C186.41 112.499 187.747 112.248 189.191 112.546C190.635 112.845 191.759 113.604 192.561 114.824C193.372 116.046 193.628 117.383 193.328 118.837C193.027 120.291 192.262 121.418 191.033 122.218C189.813 123.02 188.481 123.272 187.037 122.974C185.593 122.675 184.465 121.915 183.653 120.693ZM185.59 113.941C184.545 114.628 183.894 115.593 183.637 116.835C183.38 118.077 183.597 119.216 184.286 120.252C184.983 121.3 185.953 121.952 187.195 122.208C188.437 122.465 189.581 122.249 190.626 121.562C191.68 120.886 192.334 119.927 192.591 118.685C192.848 117.443 192.627 116.298 191.93 115.251C191.241 114.215 190.275 113.569 189.033 113.312C187.791 113.055 186.643 113.265 185.59 113.941Z" fill="white"/>
    <path d="M179.275 131.883L178.903 132.909L176.352 131.985L176.623 131.236L178.481 131.909L181.124 124.617L179.266 123.943L179.538 123.195L182.089 124.119L181.807 124.896C182.315 125.832 183.354 126.586 184.925 127.155L190.457 129.16L188.287 135.15L179.275 131.883ZM184.645 127.885C183.148 127.342 182.096 126.637 181.491 125.769L179.541 131.149L187.86 134.164L189.498 129.644L184.645 127.885Z" fill="white"/>
    <path d="M184.733 142.789C184.317 143.614 183.699 144.161 182.881 144.431C182.062 144.701 181.244 144.63 180.428 144.218C179.611 143.806 179.068 143.191 178.799 142.372C178.538 141.558 178.615 140.738 179.031 139.913L180.26 137.477L176.744 135.704L177.096 135.006L186.313 139.655L184.733 142.789ZM179.69 140.245C179.371 140.877 179.316 141.499 179.525 142.111C179.729 142.732 180.148 143.201 180.78 143.52C181.421 143.843 182.051 143.903 182.672 143.698C183.288 143.502 183.756 143.089 184.074 142.457L185.303 140.021L180.918 137.809L179.69 140.245Z" fill="white"/>
    <path d="M169.133 151.162C168.858 149.728 169.137 148.397 169.97 147.169C170.804 145.94 171.937 145.188 173.371 144.913C174.813 144.644 176.144 144.923 177.365 145.751C178.585 146.579 179.333 147.71 179.608 149.143C179.891 150.583 179.615 151.917 178.782 153.145C177.949 154.374 176.811 155.123 175.369 155.392C173.935 155.667 172.608 155.391 171.388 154.563C170.167 153.735 169.416 152.601 169.133 151.162ZM173.504 145.663C172.275 145.898 171.305 146.541 170.593 147.591C169.881 148.64 169.645 149.776 169.887 150.996C170.13 152.231 170.777 153.204 171.827 153.916C172.876 154.628 174.015 154.866 175.244 154.63C176.476 154.408 177.448 153.773 178.16 152.723C178.872 151.673 179.106 150.531 178.862 149.297C178.621 148.076 177.975 147.11 176.926 146.398C175.876 145.686 174.736 145.441 173.504 145.663Z" fill="white"/>
    <path d="M167.304 160.646C166.749 161.271 166.048 161.607 165.201 161.657C164.362 161.713 163.63 161.463 163.006 160.907C162.381 160.352 162.045 159.65 161.995 158.804C161.94 157.964 162.193 157.229 162.755 156.597L165.235 153.81L172.947 160.673L168.995 165.113L168.445 164.622L171.876 160.767L169.265 158.443L167.304 160.646ZM163.306 157.088C162.894 157.55 162.71 158.097 162.753 158.728C162.797 159.359 163.058 159.887 163.535 160.312C164.005 160.731 164.556 160.925 165.188 160.895C165.82 160.865 166.342 160.619 166.754 160.156L168.714 157.953L165.266 154.884L163.306 157.088Z" fill="white"/>
    <path d="M160.559 173.013L159.973 173.53L153.138 165.794L153.724 165.276L156.995 168.979L161.493 165.005L158.222 161.302L158.808 160.785L165.642 168.521L165.057 169.039L161.981 165.557L157.483 169.531L160.559 173.013Z" fill="white"/>
    <path d="M150.677 168.542L146.47 171.532L146.043 170.931L150.887 167.488L156.868 175.902L152.084 179.303L151.656 178.702L155.803 175.754L153.479 172.485L149.633 175.219L149.206 174.618L153.052 171.884L150.677 168.542Z" fill="white"/>
    <path d="M144.461 172.741L140.007 175.35L139.635 174.714L144.763 171.71L149.98 180.617L144.916 183.584L144.543 182.948L148.933 180.376L146.906 176.915L142.834 179.3L142.461 178.664L146.533 176.279L144.461 172.741Z" fill="white"/>
    <path d="M123.22 192.082L120.257 182.193L121.02 181.965L123.772 191.147L129.323 189.483L126.572 180.301L127.32 180.076L130.284 189.965L123.22 192.082Z" fill="white"/>
    <path d="M108.512 185.643C109.383 184.472 110.553 183.777 112.021 183.561C113.49 183.344 114.81 183.672 115.982 184.542C117.155 185.423 117.849 186.592 118.065 188.051C118.28 189.51 117.952 190.826 117.081 191.998C116.212 193.179 115.043 193.878 113.574 194.095C112.105 194.311 110.784 193.979 109.611 193.099C108.439 192.228 107.746 191.063 107.531 189.604C107.316 188.145 107.643 186.825 108.512 185.643ZM115.52 185.147C114.515 184.401 113.386 184.12 112.131 184.305C110.876 184.49 109.881 185.084 109.144 186.087C108.399 187.101 108.119 188.235 108.304 189.49C108.489 190.745 109.084 191.745 110.088 192.492C111.084 193.249 112.21 193.535 113.464 193.351C114.719 193.166 115.719 192.566 116.464 191.552C117.2 190.549 117.476 189.42 117.291 188.165C117.106 186.911 116.516 185.905 115.52 185.147Z" fill="white"/>
    <path d="M96.591 185.394L95.4998 185.402L95.4788 182.689L96.2751 182.683L96.2904 184.659L104.047 184.599L104.032 182.623L104.828 182.617L104.849 185.33L104.023 185.337C103.322 186.138 102.977 187.375 102.99 189.046L103.036 194.93L96.665 194.979L96.591 185.394ZM102.208 189.038C102.196 187.445 102.491 186.214 103.094 185.344L97.3726 185.388L97.4409 194.236L102.248 194.199L102.208 189.038Z" fill="white"/>
    <path d="M87.8503 194.248C86.9323 194.142 86.2057 193.751 85.6706 193.075C85.1354 192.399 84.9206 191.607 85.0261 190.699C85.1315 189.791 85.5222 189.069 86.198 188.534C86.8727 188.008 87.669 187.799 88.587 187.906L91.297 188.22L91.7513 184.309L92.5276 184.399L91.3367 194.653L87.8503 194.248ZM88.5019 188.638C87.7988 188.556 87.1959 188.719 86.6934 189.126C86.1811 189.531 85.8841 190.086 85.8024 190.789C85.7196 191.502 85.8811 192.114 86.2868 192.627C86.6827 193.138 87.2322 193.434 87.9353 193.516L90.6453 193.831L91.2119 188.953L88.5019 188.638Z" fill="white"/>
    <path d="M74.5744 182.465C75.8268 181.715 77.1729 181.52 78.6129 181.881C80.0529 182.242 81.148 183.049 81.8983 184.301C82.6461 185.563 82.8408 186.909 82.4821 188.34C82.1235 189.77 81.318 190.861 80.0657 191.611C78.8109 192.371 77.4635 192.57 76.0236 192.209C74.5836 191.848 73.4897 191.037 72.7418 189.775C71.9915 188.522 71.7957 187.181 72.1543 185.751C72.513 184.32 73.3197 183.225 74.5744 182.465ZM81.2399 184.684C80.5968 183.61 79.6602 182.919 78.43 182.611C77.1998 182.302 76.0528 182.471 74.9889 183.116C73.913 183.769 73.2209 184.71 72.9125 185.941C72.604 187.171 72.7714 188.323 73.4145 189.396C74.0456 190.477 74.9763 191.171 76.2065 191.48C77.4366 191.788 78.5897 191.616 79.6655 190.963C80.7294 190.318 81.4156 189.38 81.724 188.15C82.0324 186.92 81.8711 185.764 81.2399 184.684Z" fill="white"/>
    <path d="M65.1079 184.019C64.3312 183.711 63.7747 183.168 63.4384 182.389C63.0985 181.62 63.0826 180.847 63.3908 180.07C63.699 179.293 64.2424 178.737 65.021 178.4C65.7905 178.06 66.5682 178.046 67.3541 178.358L70.8221 179.734L67.0151 189.329L61.4909 187.138L61.7628 186.452L66.5605 188.356L67.8495 185.107L65.1079 184.019ZM67.0822 179.044C66.5065 178.815 65.9296 178.829 65.3516 179.087C64.7736 179.344 64.3667 179.77 64.131 180.364C63.899 180.948 63.9052 181.533 64.1496 182.116C64.3941 182.7 64.8042 183.106 65.3799 183.334L68.1214 184.422L69.8237 180.131L67.0822 179.044Z" fill="white"/>
    <path d="M51.2309 181.936L50.5437 181.563L55.463 172.488L56.1501 172.86L53.7959 177.204L59.0727 180.064L61.4269 175.721L62.1141 176.093L57.1948 185.169L56.5076 184.796L58.7213 180.712L53.4445 177.852L51.2309 181.936Z" fill="white"/>
    <path d="M52.014 171.091L47.7745 168.147L48.195 167.542L53.0766 170.932L47.1886 179.411L42.3676 176.063L42.7882 175.457L46.9672 178.359L49.2551 175.065L45.3789 172.373L45.7995 171.767L49.6757 174.459L52.014 171.091Z" fill="white"/>
    <path d="M46.0052 166.715L42.0273 163.426L42.4971 162.857L47.0774 166.644L40.4995 174.6L35.976 170.86L36.4459 170.292L40.367 173.534L42.9229 170.442L39.286 167.435L39.7558 166.867L43.3928 169.874L46.0052 166.715Z" fill="white"/>
    <path d="M18.2529 149.862L26.7962 144.068L27.2432 144.727L19.3101 150.108L22.5633 154.904L30.4964 149.523L30.9351 150.17L22.3918 155.965L18.2529 149.862Z" fill="white"/>
    <path d="M19.963 133.994C21.3444 134.467 22.362 135.369 23.0157 136.702C23.6694 138.035 23.7601 139.392 23.2879 140.773C22.8068 142.159 21.9042 143.177 20.5802 143.826C19.2561 144.476 17.9034 144.564 16.522 144.092C15.1318 143.624 14.1098 142.723 13.4561 141.391C12.8024 140.058 12.7161 138.698 13.1972 137.313C13.6694 135.931 14.5676 134.916 15.8916 134.267C17.2157 133.617 18.5728 133.526 19.963 133.994ZM22.571 140.517C22.9758 139.333 22.8989 138.172 22.3404 137.033C21.782 135.895 20.9129 135.127 19.7332 134.731C18.5403 134.331 17.3745 134.41 16.2358 134.968C15.0971 135.527 14.3254 136.398 13.9206 137.582C13.5027 138.762 13.5729 139.921 14.1314 141.059C14.6899 142.198 15.5655 142.968 16.7584 143.368C17.9381 143.764 19.0973 143.683 20.236 143.124C21.3747 142.566 22.153 141.697 22.571 140.517Z" fill="white"/>
    <path d="M16.6029 122.598L16.2661 121.56L18.847 120.722L19.0929 121.479L17.2132 122.089L19.6078 129.468L21.4874 128.858L21.7332 129.615L19.1522 130.453L18.8973 129.667C17.9213 129.24 16.6385 129.284 15.0488 129.8L9.45203 131.616L7.48543 125.557L16.6029 122.598ZM14.8215 129.052C16.3364 128.56 17.5994 128.471 18.6105 128.783L16.8442 123.341L8.42805 126.072L9.91211 130.645L14.8215 129.052Z" fill="white"/>
    <path d="M5.58624 117.235C5.40962 116.327 5.56222 115.516 6.04404 114.802C6.52587 114.087 7.21551 113.642 8.11298 113.467C9.01046 113.293 9.81659 113.446 10.5314 113.928C11.2366 114.412 11.6774 115.107 11.8541 116.014L12.3755 118.692L16.2404 117.94L16.3897 118.707L6.25701 120.68L5.58624 117.235ZM11.1303 116.155C10.995 115.46 10.6574 114.935 10.1174 114.58C9.57552 114.214 8.95717 114.099 8.26236 114.235C7.55789 114.372 7.02303 114.711 6.65778 115.253C6.29065 115.785 6.17472 116.399 6.31 117.094L6.8314 119.772L11.6517 118.833L11.1303 116.155Z" fill="white"/>
    <path d="M12.7816 100.998C13.8756 101.965 14.4684 103.189 14.56 104.671C14.6516 106.153 14.214 107.44 13.2474 108.534C12.2709 109.629 11.0467 110.222 9.57483 110.313C8.10292 110.404 6.81996 109.966 5.72594 108.999C4.62211 108.033 4.0244 106.809 3.93281 105.328C3.84123 103.846 4.28367 102.558 5.26013 101.463C6.22678 100.369 7.44606 99.7766 8.91796 99.6856C10.3899 99.5947 11.6777 100.032 12.7816 100.998ZM12.6838 108.023C13.5124 107.085 13.8875 105.983 13.8093 104.717C13.7311 103.451 13.2234 102.409 12.2863 101.59C11.3387 100.762 10.232 100.388 8.96618 100.466C7.70034 100.544 6.65314 101.052 5.82459 101.99C4.98561 102.918 4.60524 104.015 4.68349 105.281C4.76173 106.547 5.27462 107.594 6.22217 108.422C7.15929 109.241 8.26077 109.611 9.52661 109.533C10.7925 109.454 11.8449 108.951 12.6838 108.023Z" fill="white"/>
    <path d="M8.41434 92.2137C8.47232 91.38 8.82125 90.6848 9.46114 90.1282C10.0912 89.5708 10.8231 89.3211 11.6567 89.3791C12.4904 89.4371 13.1856 89.786 13.7422 90.4259C14.2996 91.056 14.5489 91.7928 14.4902 92.6362L14.2314 96.3583L3.93323 95.642L4.34559 89.7132L5.08117 89.7644L4.72304 94.9135L8.20969 95.156L8.41434 92.2137ZM13.7547 92.5851C13.7976 91.9672 13.6089 91.4219 13.1884 90.9492C12.768 90.4764 12.239 90.2179 11.6015 90.1736C10.9738 90.1299 10.419 90.3131 9.93716 90.723C9.45531 91.133 9.19289 91.6469 9.14992 92.2648L8.94527 95.2071L13.55 95.5274L13.7547 92.5851Z" fill="white"/>
    <path d="M6.16429 78.4053L6.31073 77.6376L16.4509 79.5717L16.3045 80.3394L11.4517 79.4138L10.3271 85.3096L15.1799 86.2352L15.0335 87.003L4.8933 85.0689L5.03974 84.3011L9.60284 85.1715L10.7274 79.2757L6.16429 78.4053Z" fill="white"/>
    <path d="M16.73 75.8033L18.249 70.8703L18.9537 71.0873L17.2047 76.7672L7.33879 73.7293L9.0661 68.1198L9.7708 68.3368L8.27352 73.1993L12.1071 74.3797L13.4959 69.8696L14.2006 70.0866L12.8118 74.5967L16.73 75.8033Z" fill="white"/>
    <path d="M19.0332 68.8418L20.9726 64.0585L21.656 64.3355L19.4229 69.8432L9.8563 65.9644L12.0617 60.5251L12.745 60.8022L10.8333 65.5171L14.5506 67.0243L16.3238 62.651L17.0071 62.9281L15.2339 67.3014L19.0332 68.8418Z" fill="white"/>
    <path d="M26.7152 37.251L34.8128 43.6535L34.3189 44.2782L26.7997 38.333L23.2051 42.8792L30.7244 48.8244L30.2396 49.4375L22.1419 43.035L26.7152 37.251Z" fill="white"/>
    <path d="M42.5428 33.9092C42.5057 35.3687 41.9491 36.6097 40.873 37.6324C39.7969 38.6551 38.5291 39.1479 37.0697 39.1108C35.6035 39.0665 34.3625 38.5099 33.3465 37.441C32.3306 36.372 31.8412 35.1078 31.8783 33.6484C31.9087 32.1818 32.4619 30.9372 33.538 29.9145C34.6141 28.8918 35.8852 28.4026 37.3514 28.4468C38.8109 28.484 40.0485 29.037 41.0645 30.106C42.0804 31.1749 42.5732 32.4427 42.5428 33.9092ZM37.0995 38.3501C38.3504 38.3819 39.4356 37.9609 40.3549 37.0873C41.2742 36.2136 41.7462 35.1546 41.7709 33.9105C41.7959 32.6524 41.3716 31.5637 40.4979 30.6444C39.6242 29.7251 38.5619 29.2495 37.311 29.2177C36.0604 29.172 34.9754 29.586 34.0561 30.4597C33.1368 31.3334 32.6646 32.3993 32.6396 33.6573C32.6149 34.9015 33.0394 35.9832 33.9131 36.9025C34.7868 37.8218 35.8489 38.3043 37.0995 38.3501Z" fill="white"/>
    <path d="M52.1235 27.4545L53.0106 26.819L54.5908 29.025L53.9434 29.4887L52.7926 27.8822L46.4865 32.3993L47.6373 34.0058L46.9899 34.4695L45.4097 32.2636L46.0811 31.7827C46.1928 30.7231 45.7621 29.5139 44.7888 28.1552L41.3623 23.3717L46.5415 19.6618L52.1235 27.4545ZM45.4328 27.712C46.3603 29.0068 46.8281 30.1834 46.8364 31.2417L51.4881 27.9096L46.3355 20.7164L42.4271 23.5159L45.4328 27.712Z" fill="white"/>
    <path d="M54.061 15.1965C54.8718 14.7531 55.6909 14.6526 56.5181 14.895C57.3454 15.1373 57.9783 15.6596 58.417 16.4618C58.8557 17.2641 58.9538 18.0788 58.7115 18.9061C58.4644 19.7247 57.9354 20.3557 57.1246 20.7991L54.7309 22.108L56.62 25.5628L55.9342 25.9378L50.9815 16.8805L54.061 15.1965ZM56.7708 20.1522C57.3919 19.8125 57.79 19.3315 57.9651 18.7091C58.1488 18.082 58.0709 17.4579 57.7313 16.8368C57.3869 16.2071 56.9012 15.8004 56.2741 15.6167C55.6556 15.4283 55.0358 15.5038 54.4147 15.8435L52.021 17.1524L54.3771 21.4611L56.7708 20.1522Z" fill="white"/>
    <path d="M71.5525 17.1838C70.9636 18.5197 69.9772 19.4562 68.5932 19.9933C67.2093 20.5304 65.8494 20.5046 64.5135 19.9157C63.1741 19.3177 62.2376 18.3313 61.704 16.9565C61.1704 15.5817 61.1981 14.2264 61.7869 12.8905C62.3722 11.5455 63.3568 10.6044 64.7408 10.0672C66.1248 9.5301 67.4865 9.56054 68.8259 10.1586C70.1618 10.7474 71.0965 11.7293 71.6301 13.1041C72.1636 14.4789 72.1378 15.8388 71.5525 17.1838ZM64.8301 19.2234C65.9751 19.7281 67.1388 19.751 68.3211 19.2922C69.5034 18.8333 70.3424 18.0331 70.838 16.8916C71.3391 15.7374 71.3603 14.5692 70.9014 13.3869C70.4425 12.2045 69.6406 11.361 68.4956 10.8563C67.3561 10.3388 66.1953 10.3095 65.0129 10.7684C63.8306 11.2273 62.9889 12.0338 62.4877 13.188C61.9921 14.3295 61.9738 15.4914 62.4326 16.6737C62.8915 17.856 63.6907 18.7059 64.8301 19.2234Z" fill="white"/>
    <path d="M78.4926 10.3769C79.3047 10.1798 80.0729 10.302 80.7971 10.7434C81.519 11.1752 81.9785 11.7972 82.1756 12.6093C82.3726 13.4214 82.2505 14.1896 81.8091 14.9138C81.3772 15.6357 80.7505 16.0963 79.9288 16.2957L76.303 17.1755L73.8688 7.14359L79.6443 5.74218L79.8182 6.45874L74.8022 7.67585L75.6264 11.0724L78.4926 10.3769ZM79.7549 15.5791C80.3569 15.4331 80.8195 15.0881 81.1428 14.5443C81.4661 14.0005 81.5524 13.4181 81.4017 12.7971C81.2533 12.1856 80.9108 11.7123 80.3742 11.3771C79.8377 11.0419 79.2684 10.9474 78.6665 11.0934L75.8002 11.7889L76.8887 16.2746L79.7549 15.5791Z" fill="white"/>
    <path d="M90.7797 4.06834L91.5557 3.97518L92.7861 14.2246L92.0101 14.3178L91.4212 9.41268L85.4619 10.1281L86.0508 15.0332L85.2747 15.1263L84.0443 4.87689L84.8204 4.78373L85.3741 9.39597L91.3334 8.68058L90.7797 4.06834Z" fill="white"/>
    <path d="M96.4392 13.3289L101.6 13.2691L101.609 14.0064L95.6662 14.0753L95.5467 3.75294L101.416 3.68497L101.424 4.42228L96.3368 4.4812L96.3832 8.49215L101.102 8.43751L101.111 9.17482L96.3917 9.22946L96.4392 13.3289Z" fill="white"/>
    <path d="M104.117 13.3914L109.263 13.7892L109.206 14.5244L103.281 14.0663L104.076 3.77404L109.928 4.22639L109.871 4.96156L104.799 4.56944L104.49 8.56874L109.195 8.93244L109.138 9.6676L104.433 9.30391L104.117 13.3914Z" fill="white"/>
    <path d="M136.8 11.1752L133.137 20.8265L132.392 20.544L135.793 11.582L130.375 9.52559L126.974 18.4876L126.243 18.2102L129.906 8.55889L136.8 11.1752Z" fill="white"/>
    <path d="M144.503 25.1238C143.101 25.5291 141.75 25.3732 140.45 24.6561C139.15 23.9391 138.297 22.8793 137.892 21.4768C137.492 20.0657 137.647 18.7145 138.36 17.4232C139.072 16.1319 140.13 15.2836 141.532 14.8783C142.939 14.4645 144.293 14.616 145.593 15.3331C146.893 16.0502 147.743 17.1143 148.143 18.5254C148.549 19.9279 148.395 21.2748 147.683 22.5661C146.971 23.8573 145.911 24.7099 144.503 25.1238ZM138.626 21.2755C138.974 22.4776 139.703 23.385 140.813 23.9976C141.924 24.6102 143.076 24.7404 144.269 24.3883C145.476 24.0323 146.386 23.299 146.998 22.1885C147.611 21.078 147.744 19.9217 147.396 18.7196C147.062 17.5135 146.34 16.6042 145.229 15.9917C144.119 15.3791 142.96 15.2508 141.753 15.6068C140.56 15.9589 139.657 16.6902 139.044 17.8007C138.432 18.9112 138.292 20.0695 138.626 21.2755Z" fill="white"/>
    <path d="M154.087 32.7144L154.958 33.3723L153.322 35.5371L152.686 35.057L153.878 33.4805L147.689 28.8037L146.498 30.3802L145.862 29.9001L147.498 27.7353L148.157 28.2332C149.202 28.0246 150.228 27.2537 151.236 25.9202L154.784 21.2258L159.866 25.0668L154.087 32.7144ZM151.851 26.4032C150.89 27.6739 149.906 28.4706 148.898 28.7933L153.463 32.2431L158.798 25.1839L154.963 22.2853L151.851 26.4032Z" fill="white"/>
    <path d="M165.861 30.4564C166.529 31.0955 166.872 31.846 166.891 32.7078C166.91 33.5696 166.603 34.3308 165.971 34.9912C165.338 35.6517 164.591 35.9913 163.729 36.0101C162.874 36.0218 162.113 35.7081 161.446 35.069L159.475 33.1824L156.752 36.0267L156.187 35.4862L163.326 28.0293L165.861 30.4564ZM161.955 34.5364C162.467 35.0259 163.046 35.2601 163.692 35.2391C164.345 35.2249 164.916 34.9621 165.406 34.4507C165.902 33.9323 166.143 33.3464 166.129 32.6931C166.122 32.0466 165.863 31.4786 165.351 30.9891L163.381 29.1024L159.985 32.6498L161.955 34.5364Z" fill="white"/>
    <path d="M169.485 48.0005C168.034 47.8415 166.844 47.1832 165.915 46.0254C164.985 44.8676 164.6 43.5631 164.759 42.1119C164.926 40.6545 165.584 39.4643 166.734 38.5413C167.884 37.6182 169.185 37.2362 170.636 37.3951C172.095 37.5479 173.289 38.2032 174.218 39.361C175.148 40.5188 175.529 41.8263 175.362 43.2837C175.203 44.7349 174.549 45.922 173.399 46.8451C172.249 47.7681 170.944 48.1533 169.485 48.0005ZM165.515 42.2051C165.378 43.449 165.707 44.5655 166.501 45.5546C167.295 46.5437 168.311 47.1026 169.548 47.2311C170.8 47.3612 171.92 47.0294 172.909 46.2355C173.899 45.4417 174.461 44.4228 174.597 43.179C174.748 41.9366 174.426 40.8208 173.632 39.8317C172.838 38.8426 171.815 38.283 170.564 38.1529C169.326 38.0244 168.213 38.357 167.223 39.1508C166.234 39.9446 165.665 40.9627 165.515 42.2051Z" fill="white"/>
    <path d="M177.859 52.2247C178.294 52.9379 178.412 53.7067 178.213 54.5311C178.022 55.3503 177.57 55.9778 176.857 56.4133C176.144 56.8489 175.375 56.9671 174.551 56.7679C173.732 56.5771 173.102 56.1209 172.661 55.3993L170.716 52.2152L179.526 46.8345L182.624 51.9064L181.994 52.2908L179.304 47.8859L176.321 49.7076L177.859 52.2247ZM173.29 55.015C173.613 55.5436 174.083 55.8788 174.699 56.0206C175.316 56.1625 175.897 56.0668 176.442 55.7337C176.979 55.4058 177.325 54.9351 177.481 54.3219C177.636 53.7086 177.552 53.1376 177.229 52.609L175.692 50.092L171.753 52.4979L173.29 55.015Z" fill="white"/>
    <path d="M187.862 62.5296L188.185 63.2413L178.786 67.5094L178.463 66.7978L182.961 64.7552L180.479 59.2901L175.981 61.3327L175.658 60.621L185.057 56.3529L185.38 57.0646L181.151 58.9852L183.632 64.4503L187.862 62.5296Z" fill="white"/>
    <path d="M180.684 70.6149L182.296 75.5182L181.595 75.7485L179.739 70.1026L189.546 66.879L191.379 72.4548L190.678 72.6851L189.09 67.8517L185.279 69.1044L186.753 73.5875L186.052 73.8177L184.579 69.3346L180.684 70.6149Z" fill="white"/>
    <path d="M182.858 77.7348L184.037 82.7598L183.319 82.9282L181.962 77.1422L192.012 74.7844L193.352 80.4987L192.635 80.6671L191.472 75.7138L187.567 76.63L188.645 81.2243L187.927 81.3927L186.849 76.7984L182.858 77.7348Z" fill="white"/>
    <circle cx="118.529" cy="10.1594" r="1.12884" fill="white"/>
    <circle cx="21.4506" cy="55.3137" r="1.12884" fill="white"/>
    <circle cx="32.7397" cy="161.423" r="1.12884" fill="white"/>
    <circle cx="136.591" cy="184" r="1.12884" fill="white"/>
    <circle cx="190.775" cy="91.4357" r="1.12884" fill="white"/>
</svg>
