<svg width="35" height="36" viewBox="0 0 35 36" fill="none" xmlns="http://www.w3.org/2000/svg">
    <path d="M24.7916 24.8674C23.1808 24.8674 21.875 26.1732 21.875 27.784C21.875 29.3948 23.1808 30.7007 24.7916 30.7007C26.4025 30.7007 27.7083 29.3948 27.7083 27.784C27.7083 26.1732 26.4025 24.8674 24.7916 24.8674ZM24.7916 24.8674H10.7439C10.0182 24.8674 9.40289 24.3337 9.30026 23.6153L8.85413 20.4924M2.91663 4.45068H6.56246L6.97913 7.36735M6.97913 7.36735H7.29163H30.625L26.25 20.4924H9.47913H8.85413M6.97913 7.36735L8.85413 20.4924M16.0416 27.784C16.0416 29.3948 14.7358 30.7007 13.125 30.7007C11.5141 30.7007 10.2083 29.3948 10.2083 27.784C10.2083 26.1732 11.5141 24.8674 13.125 24.8674C14.7358 24.8674 16.0416 26.1732 16.0416 27.784Z" stroke="white" stroke-width="1.5" stroke-linecap="round" stroke-linejoin="round"/>
</svg>
